<?xml version="1.0" encoding="utf-8"?>
<!-- Generator: Adobe Illustrator 16.0.4, SVG Export Plug-In . SVG Version: 6.00 Build 0)  -->
<!DOCTYPE svg PUBLIC "-//W3C//DTD SVG 1.1//EN" "http://www.w3.org/Graphics/SVG/1.1/DTD/svg11.dtd">
<svg version="1.1" xmlns="http://www.w3.org/2000/svg" xmlns:xlink="http://www.w3.org/1999/xlink" x="0px" y="0px"
	 width="376.001px" height="190px" viewBox="0 0 376.001 190" enable-background="new 0 0 376.001 190" xml:space="preserve">
<g id="Background">
</g>
<g id="Basketball_Color">
	
		<circle fill="#FBAB2C" stroke="#000000" stroke-width="6" stroke-linecap="round" stroke-linejoin="round" stroke-miterlimit="10" cx="57.976" cy="76.621" r="40.281"/>
</g>
<g id="Layer_1">
	<path fill="none" stroke="#000000" stroke-width="8" stroke-miterlimit="10" d="M125.937,229.378"/>
	<g id="ARC">
		<path fill="none" stroke="#000000" stroke-width="6" stroke-linecap="round" stroke-linejoin="round" stroke-miterlimit="10" d="
			M88.896,51.362c-13.951,4.973-21.227,20.312-16.255,34.263c2.703,7.583,8.671,13.551,16.255,16.254"/>
	</g>
	<g id="ARC_2_">
		<path fill="none" stroke="#000000" stroke-width="6" stroke-linecap="round" stroke-linejoin="round" stroke-miterlimit="10" d="
			M27.043,101.879c13.95-4.973,21.227-20.313,16.254-34.262c-2.703-7.583-8.671-13.551-16.254-16.255"/>
	</g>
	<g id="LINE">
		
			<line fill="none" stroke="#000000" stroke-width="6" stroke-linecap="round" stroke-linejoin="round" stroke-miterlimit="10" x1="18.039" y1="76.621" x2="97.9" y2="76.621"/>
	</g>
	<g id="LINE_1_">
		<g id="XMLID_1_">
			<g>
				<path fill="#FFFFFF" d="M104.051,60.7c8.79,25.45-4.71,53.21-30.16,62c-28.55,9.87-51.89,30.89-64.68,58.26V76.62
					c0-20.79,13.19-39.29,32.83-46.08C67.492,21.75,95.251,35.25,104.051,60.7z M88.901,101.88c12-14.7,12-35.82,0-50.52
					c-13.96-17.08-39.11-19.62-56.19-5.67c-17.08,13.95-19.62,39.11-5.67,56.19s39.11,19.62,56.19,5.67
					C85.301,105.85,87.202,103.95,88.901,101.88z"/>
			</g>
			<g>
				
					<path fill="none" stroke="#000000" stroke-width="5" stroke-linecap="round" stroke-linejoin="round" stroke-miterlimit="10" d="
					M88.901,51.36c-13.96-17.08-39.11-19.62-56.19-5.67c-17.08,13.95-19.62,39.11-5.67,56.19s39.11,19.62,56.19,5.67
					c2.07-1.7,3.97-3.6,5.67-5.67"/>
				
					<path fill="none" stroke="#000000" stroke-width="5" stroke-linecap="round" stroke-linejoin="round" stroke-miterlimit="10" d="
					M88.901,101.88c12-14.7,12-35.82,0-50.52"/>
				
					<path fill="none" stroke="#000000" stroke-width="5" stroke-linecap="round" stroke-linejoin="round" stroke-miterlimit="10" d="
					M73.892,122.7c-28.55,9.87-51.89,30.89-64.68,58.26"/>
				
					<path fill="none" stroke="#000000" stroke-width="5" stroke-linecap="round" stroke-linejoin="round" stroke-miterlimit="10" d="
					M73.892,122.7c25.45-8.79,38.95-36.55,30.16-62c-8.8-25.45-36.56-38.95-62.01-30.16c-19.64,6.79-32.83,25.29-32.83,46.08"/>
				
					<line fill="none" stroke="#000000" stroke-width="5" stroke-linecap="round" stroke-linejoin="round" stroke-miterlimit="10" x1="9.211" y1="76.62" x2="9.211" y2="180.96"/>
			</g>
		</g>
	</g>
	<g id="LINE_2_">
		
			<line fill="none" stroke="#000000" stroke-width="6" stroke-linecap="round" stroke-linejoin="round" stroke-miterlimit="10" x1="57.97" y1="36.691" x2="57.97" y2="116.551"/>
	</g>
	
		<text transform="matrix(0.95 0 0 1 111.8569 111.9009)" fill="#FFFFFF" stroke="#000000" stroke-width="5" stroke-miterlimit="10" font-family="'Futura-Medium'" font-size="116.6829">ickup</text>
</g>
</svg>
